<?xml version="1.0" encoding="utf-8"?>
<!-- Generator: Adobe Illustrator 24.2.3, SVG Export Plug-In . SVG Version: 6.00 Build 0)  -->
<svg version="1.1" id="图层_1" xmlns="http://www.w3.org/2000/svg" xmlns:xlink="http://www.w3.org/1999/xlink" x="0px" y="0px"
	 viewBox="0 0 1920 1080" style="enable-background:new 0 0 1920 1080;" xml:space="preserve">
<style type="text/css">
	.st0{fill:#00FFFF;}
	.st1{fill:#FFFFFF;}
	.st2{fill:none;}
	.st3{font-family:'CalSans-SemiBold';}
	.st4{font-size:150px;}
	.st5{fill:#FFCC00;}
</style>
<rect x="0" width="1920" height="1080"/>
<g>
	<circle class="st0" cx="551.3" cy="548" r="11.3"/>
	<circle class="st0" cx="528.8" cy="490.4" r="11.3"/>
	<circle class="st0" cx="573.8" cy="490.4" r="11.3"/>
	<circle class="st0" cx="608.9" cy="570.5" r="11.3"/>
	<circle class="st0" cx="573.8" cy="605.6" r="11.3"/>
	<circle class="st0" cx="528.8" cy="605.6" r="11.3"/>
	<path class="st0" d="M527.5,540c-4.3-4.3-11.6-4.3-15.9,0c-4.3,4.3-4.3,11.6,0,15.9c2.3,2.3,5,3.3,7.9,3.3s6-1,7.9-3.3
		C532.1,551.6,532.1,544.3,527.5,540L527.5,540z"/>
	<path class="st0" d="M543.4,571.8c-2,2-3.3,5-3.3,7.9s1.3,6,3.3,7.9s5,3.3,7.9,3.3s6-1.3,7.9-3.3s3.3-5,3.3-7.9s-1.3-6-3.3-7.9
		C554.9,567.2,547.7,567.2,543.4,571.8z"/>
	<path class="st0" d="M551,459.9c3,0,6-1,7.9-3.3c4.3-4.3,4.3-11.6,0-15.9l0,0c-4.3-4.3-11.6-4.3-15.9,0s-4.3,11.6,0,15.9
		C545,458.9,548,459.9,551,459.9z"/>
	<path class="st0" d="M594.4,469.5c2,2,5,3.3,7.9,3.3s6-1.3,7.9-3.3s3.3-5,3.3-7.9c0-3-1.3-6-3.3-7.9l0,0l0,0
		c-4.3-4.3-11.6-4.3-15.9,0C589.7,457.9,589.7,465.2,594.4,469.5z"/>
	<path class="st0" d="M629.5,492c-2,2-3.3,5-3.3,7.9c0,3,1.3,6,3.3,7.9c2.3,2.3,5,3.3,7.9,3.3s6-1,7.9-3.3c2-2,3.3-5,3.3-7.9
		c0-3-1.3-6-3.3-7.9l0,0C641.1,487.4,633.8,487.4,629.5,492z"/>
	<path class="st0" d="M658.3,540c-4.3-4.3-11.6-4.3-15.9,0s-4.3,11.6,0,15.9c2.3,2.3,5,3.3,7.9,3.3s6-1,7.9-3.3
		C662.6,551.6,662.6,544.3,658.3,540z"/>
	<path class="st0" d="M629.5,591.4c-2,2-3.3,5-3.3,7.9s1.3,6,3.3,7.9c2.3,2.3,5,3.3,7.9,3.3s6-1,7.9-3.3c2-2,3.3-5,3.3-7.9
		s-1.3-6-3.3-7.9C641.1,586.7,633.8,586.7,629.5,591.4z"/>
	<path class="st0" d="M594.4,626.5c-4.3,4.3-4.3,11.6,0,15.9c2,2,5,3.3,7.9,3.3s6-1.3,7.9-3.3c4.3-4.3,4.3-11.6,0-15.9
		C605.9,622.2,598.3,622.2,594.4,626.5z"/>
	<path class="st0" d="M543,639.4c-4.3,4.3-4.3,11.6,0,15.9c2.3,2.3,5,3.3,7.9,3.3s6-1,7.9-3.3c4.3-4.3,4.3-11.6,0-15.9
		C554.6,634.8,547.3,634.8,543,639.4z"/>
	<path class="st0" d="M510.9,626.5c-4.3-4.3-11.6-4.3-15.9,0s-4.3,11.6,0,15.9c2,2,5,3.3,7.9,3.3s6-1.3,7.9-3.3
		C515.2,638.1,515.2,630.8,510.9,626.5z"/>
	<path class="st0" d="M472.5,604c4.3-4.3,4.3-11.6,0-15.9s-11.6-4.3-15.9,0c-4.3,4.3-4.3,11.6,0,15.9c2,2,5,3.3,7.9,3.3
		S470.5,606.3,472.5,604z"/>
	<path class="st0" d="M464.5,507.9c3,0,6-1.3,7.9-3.3c2-2,3.3-5,3.3-7.9c0-3-1.3-6-3.3-7.9c-4.3-4.3-11.6-4.3-15.9,0
		c-4.3,4.3-4.3,11.6,0,15.9C458.6,506.9,461.6,507.9,464.5,507.9z"/>
	<path class="st0" d="M502.9,472.8c3,0,6-1.3,7.9-3.3c2-2,3.3-5,3.3-7.9c0-3-1.3-6-3.3-7.9l0,0c-4.3-4.3-11.6-4.3-15.9,0
		c-2,2-3.3,5-3.3,7.9c0,3,1.3,6,3.3,7.9C497,471.8,500,472.8,502.9,472.8z"/>
	<path class="st0" d="M522.2,421.5c3,0,6-1.3,7.9-3.3c4.3-4.3,4.3-11.6,0-15.9l0,0c-4.3-4.3-11.6-4.3-15.9,0c-2,2-3.3,5-3.3,7.9
		s1.3,6,3.3,7.9C516.2,420.5,519.2,421.5,522.2,421.5z"/>
	<path class="st0" d="M631.1,444c3,0,6-1.3,7.9-3.3c4.3-4.3,4.3-11.6,0-15.9c-4.3-4.3-11.6-4.3-15.9,0c-2,2-3.3,5-3.3,7.9
		s1.3,6,3.3,7.9S628.1,444,631.1,444z"/>
	<path class="st0" d="M666.2,479.1c3,0,6-1.3,7.9-3.3c2-2,3.3-5,3.3-7.9c0-3-1.3-6-3.3-7.9l0,0l0,0c-4.3-4.3-11.6-4.3-15.9,0
		c-2,2-3.3,5-3.3,7.9c0,3,1.3,6,3.3,7.9C660.3,478.1,663.2,479.1,666.2,479.1z"/>
	<path class="st0" d="M680.8,527.1c2.3,2.3,5,3.3,7.9,3.3s6-1,7.9-3.3c2-2,3.3-5,3.3-7.9s-1.3-6-3.3-7.9l0,0
		c-4.3-4.3-11.6-4.3-15.9,0c-2,2-3.3,5-3.3,7.9S678.5,525.1,680.8,527.1z"/>
	<path class="st0" d="M680.8,568.8c-2,2-3.3,5-3.3,7.9s1.3,6,3.3,7.9c2.3,2.3,5,3.3,7.9,3.3s6-1,7.9-3.3c2-2,3.3-5,3.3-7.9
		s-1.3-6-3.3-7.9C692.4,564.5,685.1,564.5,680.8,568.8z"/>
	<path class="st0" d="M661.6,616.9c-2,2-3.3,5-3.3,7.9s1.3,6,3.3,7.9c2,2,5,3.3,7.9,3.3s6-1.3,7.9-3.3c4.3-4.3,4.3-11.6,0-15.9
		C673.2,612.6,665.9,612.6,661.6,616.9z"/>
	<path class="st0" d="M623.2,655.3c-4.3,4.3-4.3,11.6,0,15.9c2,2,5,3.3,7.9,3.3s6-1.3,7.9-3.3c4.3-4.3,4.3-11.6,0-15.9
		S627.1,651,623.2,655.3z"/>
	<path class="st0" d="M571.8,677.8c-4.3,4.3-4.3,11.6,0,15.9c2.3,2.3,5,3.3,7.9,3.3s6-1,7.9-3.3c4.3-4.3,4.3-11.6,0-15.9
		C583.4,673.2,576.1,673.2,571.8,677.8z"/>
	<path class="st0" d="M530.1,677.8c-4.3-4.3-11.6-4.3-15.9,0c-4.3,4.3-4.3,11.6,0,15.9c2,2,5,3.3,7.9,3.3c3,0,6-1.3,7.9-3.3
		C534.4,689.4,534.4,682.1,530.1,677.8L530.1,677.8z"/>
	<path class="st0" d="M478.8,655.3c-4.3-4.3-11.6-4.3-15.9,0c-4.3,4.3-4.3,11.6,0,15.9c2,2,5,3.3,7.9,3.3s6-1.3,7.9-3.3
		C483.4,666.9,483.4,659.6,478.8,655.3L478.8,655.3z"/>
	<path class="st0" d="M424.5,616.9c-2,2-3.3,5-3.3,7.9s1.3,6,3.3,7.9s5,3.3,7.9,3.3s6-1.3,7.9-3.3s3.3-5,3.3-7.9s-1.3-6-3.3-7.9
		C436.1,612.6,428.8,612.6,424.5,616.9z"/>
	<path class="st0" d="M424.5,576.8c0-3-1.3-6-3.3-7.9c-4.3-4.3-11.6-4.3-15.9,0c-2,2-3.3,5-3.3,7.9s1.3,6,3.3,7.9
		c2.3,2.3,5,3.3,7.9,3.3c3,0,6-1,7.9-3.3C423.5,582.8,424.5,579.8,424.5,576.8z"/>
	<path class="st0" d="M413.2,530.4c3,0,6-1,7.9-3.3c2-2,3.3-5,3.3-7.9s-1.3-6-3.3-7.9l0,0l0,0c-4.3-4.3-11.6-4.3-15.9,0
		s-4.3,11.6,0,15.9C407.6,529.4,410.2,530.4,413.2,530.4z"/>
	<path class="st0" d="M435.7,482.4c3,0,6-1.3,7.9-3.3c4.3-4.3,4.3-11.6,0-15.9l0,0c-4.3-4.3-11.6-4.3-15.9,0c-2,2-3.3,5-3.3,7.9
		s1.3,6,3.3,7.9C429.8,481.4,432.7,482.4,435.7,482.4z"/>
	<path class="st0" d="M474.1,444c3,0,6-1,7.9-3.3c4.3-4.3,4.3-11.6,0-15.9c-4.3-4.3-11.6-4.3-15.9,0c-2,2-3.3,5-3.3,7.9
		s1.3,6,3.3,7.9C468.2,443,471.2,444,474.1,444z"/>
	<path class="st1" d="M695.1,371.4c-0.9-1.6-26.3,10.8-50.3,23.6c1.5-0.9,3.1-1.9,4.7-2.8c24.6-15.1,43-29.9,41.2-32.9
		c-1-1.6-26.5,13.1-50,27.7c21.5-18.4,37-35.4,34.8-38c-1.4-1.6-31.6,23-54.4,43.1c-12.2,10.4-34.5,29.4-36.1,32
		c-2.2,3.5-20.4,58.5-35.9,81.5c-15.5,23-29.2,23.5-29.2,23.5l0.4-6.8l-6.5-3.2c0,0-8.2-5.6-14-5.7c-5.9-0.1-12.1,3.8-16.6,5.3
		c-4.5,1.6-9.9,3.7-21,6.1c-11.6,2.5-22.2,3.3-24.6,3.6c-2.8,0.4-3.1,2.3-3.1,4.4c-0.1,3.7,14.3,6.3,25.4,6.5
		c11.1,0.2,26.9-3.6,26.9-3.6s-5.4,5,0.4,11c5.8,6,21.2,6.1,24.1,9.9c4.3,5.5-12.8,28.3-33,53.3c-20.3,25.1-22.7,21-29.8,31.5
		c-5.1,7.6-9.2,24.2-11.2,33c-8.4,29.3-17.9,68.1-15.7,68.6c3.4,0.9,12.2-21,19.7-48.9c0.8-3.2,1.6-6.3,2.4-9.3
		c-2.7,29.5-4.6,64.8-2.6,65c3.5,0.3,8.2-22.9,10.5-51.7c0.1-1.8,0.3-3.6,0.4-5.3c-0.4,27.1,0.1,55.1,2,55.1c3.5,0,6.7-23.4,7-52.3
		c0-2.9,0-5.7,0-8.5l0,0c1.7,27.1,4.4,55.3,6.2,55.2c3.4-0.2,4.8-22.9,3.1-50.9c2.5,20.5,5.2,37.8,6.7,37.7
		c2.8-0.3,3.5-15.8,2.1-36.8l0.2,0.1c0,0,30.8-33.9,45.6-53.1c14.8-19.2,30.4-44.9,30.4-44.9s4.1-2.1,8-6.1c3.9-4,4.2-5,4.2-5
		s2.9,0.6,7.3,1c4.6,0.5,8.6,0.6,8.6,0.6s2.3,3.4,5,7.6c2.7,4.1,4.8,5.7,10.4,7.5c4.8,1.6,23.4-10.6,26.7-16.4
		c3.1-5.5,2.4-28.8-0.1-29.8c-2.5-1-3.1-1.3-10.7-0.8c-7.5,0.5-14.8,4.4-14.8,4.4s-10.5-8.7-11.1-10.6c-0.6-1.9,3.9-6.2,6.5-10.9
		c2.6-4.7,2.7-10.9,2.7-10.9s20.7-33.5,32.4-54.7c10.1-18.2,21.4-51.5,24.3-60.4c18.4-8.9,30.9-16.9,29.8-19.4
		c-0.5-1.3-16,4.5-34.3,12.1c0.7-0.4,1.3-0.7,2-1.1C677.4,388,696.8,374.6,695.1,371.4z"/>
	<rect x="750.2" y="478.8" class="st2" width="1123.8" height="686.3"/>
	<text transform="matrix(1 0 0 1 750.2339 606.2703)"><tspan x="0" y="0" class="st1 st3 st4">Pelican</tspan><tspan x="488.4" y="0" class="st5 st3 st4">Flow</tspan></text>
</g>
</svg>
